<?xml version="1.0" encoding="utf-8"?>
<!-- Generator: Adobe Illustrator 26.3.1, SVG Export Plug-In . SVG Version: 6.00 Build 0)  -->
<svg version="1.1" id="Layer_1" xmlns="http://www.w3.org/2000/svg" xmlns:xlink="http://www.w3.org/1999/xlink" x="0px" y="0px"
	 width="250px" height="250px" viewBox="0 0 250 250" enable-background="new 0 0 250 250" xml:space="preserve">
<g>
	<g>
		<path stroke="#000000" stroke-linecap="round" stroke-linejoin="round" stroke-miterlimit="10" d="M135,121.3
			c-5.8,6-5.6,18.5,0.5,27.1c0.8,1.1,1.7,2.1,2.6,3c3.2,2.9,2.3,6.7,1.1,9.7c-1.6,4.1-4.6,0.4-6.8,0.1c-6.5-0.8-12.4-2.1-15.7,6.5
			c-2.4,6.5-11.9,6.8-16.9,1.3c-1.6-1.8-2.7-4-4.2-5.9c-1.4-1.8-3.2-3.1-5.5-1.8c-2.7,1.5-1.7,3.6-0.4,5.5c2.5,3.5,2.2,6.6-1.6,8.8
			c-3.3,2-6.5,0.7-9.6-4.1c2.4-1.1,4.8,2.9,7,0c2-2.7-0.4-4.4-1.4-6.4c-2.2-4-2-7.8,1.3-11c3.1-2.9,6.6-3.1,10.1-0.3
			c3.1,2.5,6.3,2.9,9.1-0.6c2.5-3.2,1.1-5.9-1-8.7c-6.6-8.9-6.4-9.5,4.2-13c3.4-1.1,4.1-3.7,4.8-6.7c1.7-6.9,10.5-11.2,17.6-8.9
			C134.9,114.8,136.6,116.5,135,121.3z"/>
		<path stroke="#000000" stroke-linecap="round" stroke-linejoin="round" stroke-miterlimit="10" d="M85.2,178.2
			c-2.8,0-5.5-1.9-8-5.7l-1-1.6l1.7-0.8c1.7-0.8,3.3-0.1,4.4,0.4c1.5,0.7,1.5,0.6,1.9,0.1c0.8-1.1,0.6-1.6-0.6-3.2
			c-0.3-0.5-0.7-1-1-1.5c-2.7-4.8-2.1-9.4,1.6-12.9c3.8-3.5,8.1-3.7,12.2-0.4c1.5,1.2,2.8,1.7,3.9,1.6c1-0.1,1.9-0.8,2.9-1.9
			c1.6-2,1.3-3.6-1-6.7c-3.6-4.8-5.4-7.5-4.6-10c0.8-2.5,3.8-3.6,9.6-5.5c2.5-0.8,3-2.5,3.7-5.5c0.9-3.5,3.4-6.7,7-8.6
			c3.8-2.1,8.3-2.7,12.2-1.5c2.8-0.7,4.8-0.4,6,0.9c1.3,1.3,1.4,3.5,0.4,6.5l-0.1,0.4l-0.3,0.3c-5.2,5.4-4.9,17.1,0.7,25.1
			c0.7,1,1.5,1.9,2.4,2.8c4.5,4.1,2.2,9.7,1.5,11.5c-0.6,1.4-1.4,2.3-2.5,2.7c-1.6,0.6-3.2-0.3-4.4-0.9c-0.6-0.3-1.2-0.7-1.6-0.7
			l-1.1-0.1c-6.2-0.8-10.2-1.3-12.8,5.6c-1.2,3.1-3.8,5.3-7.3,6c-4.4,0.8-9.2-0.8-12.3-4.1c-1-1.1-1.9-2.4-2.7-3.6
			c-0.5-0.8-1-1.6-1.6-2.4c-1.8-2.3-2.9-1.7-3.5-1.4c-0.3,0.2-0.8,0.5-0.8,0.8c-0.1,0.3,0,1,1,2.3c1.6,2.3,2.2,4.4,1.8,6.4
			c-0.4,1.9-1.7,3.5-3.8,4.8C87.7,177.8,86.4,178.2,85.2,178.2z M83.1,174.2c1.7,1.1,3.1,0.7,4.2,0c1.3-0.8,2.1-1.7,2.3-2.7
			c0.2-1-0.2-2.3-1.2-3.8c-0.8-1.2-1.9-3-1.5-4.9c0.3-1.2,1.1-2.2,2.4-2.9c1.5-0.8,4.6-1.7,7.6,2.3c0.6,0.8,1.2,1.7,1.8,2.6
			c0.8,1.2,1.5,2.3,2.3,3.2c2.3,2.6,6,3.8,9.3,3.1c1.4-0.3,3.9-1.1,4.9-3.9c3.5-9.3,10.3-8.5,16.2-7.7l1.1,0.1
			c1,0.1,1.9,0.6,2.7,1.1c0.5,0.3,1.5,0.8,1.8,0.7c0.1,0,0.3-0.2,0.6-0.9c1.5-3.7,1.3-6.1-0.7-8c-1.1-1-2-2.1-2.9-3.3
			c-6.4-9.1-6.7-22.2-0.6-28.9c0.6-1.9,0.4-2.7,0.2-2.9c-0.2-0.2-1.1-0.5-3.3,0.1l-0.5,0.1l-0.5-0.1c-3.2-1-6.9-0.6-10.1,1.2
			c-2.8,1.5-4.8,4-5.4,6.6c-0.7,3-1.6,6.4-5.9,7.8c-3.2,1.1-7.2,2.4-7.5,3.4c-0.3,1,2.1,4.4,4.1,7.1c1.6,2.1,4.5,6.1,1,10.6
			c-1.5,1.9-3.1,2.9-5,3.1c-2,0.2-4.1-0.5-6.3-2.3c-2.8-2.3-5.4-2.2-8,0.2c-2.7,2.5-3,5.4-1,9c0.2,0.4,0.5,0.8,0.8,1.1
			c1.1,1.5,2.8,3.9,0.6,7C85.6,174.1,84.3,174.4,83.1,174.2z"/>
	</g>
	<g>
		<path stroke="#000000" stroke-linecap="round" stroke-linejoin="round" stroke-miterlimit="10" d="M183,141.2
			c6.9,2.8,11.9,0.7,17-2.5c2.9-1.8,5.2-4.1,3.6-7c-3.4-6.1-2.2-16.3-13.5-16c-0.7,0-1.4-2.6-2.1-4c-0.5,0.4-0.9,0.6-1.1,1
			c-1.3,2,2.8,4.7-0.6,6.2c-1.9,0.9-2.8-1.2-3.2-2.7c-0.7-2.7-2.4-5.8,0.8-7.8c4.7-3.1,9.7-5.7,15.5-1.9c0.7,0.5,2,0.9,2.7,0.6
			c12.8-5.7,17.8-4.4,24,6.4c-1.7,2-4.1-3-5.2,0.2c-1.1,3.1,2.2,2.1,3.6,2.7c5.7,2.6,4.6,7.7,3.5,11.8c-0.8,2.9-2.7,5.6-3.7,8.7
			c-1,3-2.5,5.8-4.2,9.5c-2.2-2.8-0.8-4.9-0.6-7.1c0.5-4.3-1.1-7.9-5.4-8.4c-4.6-0.5-5.1,3.9-5.8,7.3c-0.7,3.3,0.7,6.2,2.1,9.2
			c2.1,4.6-0.5,6.2-3.8,9.5c-4.5,4.6-9.9,4.8-14.5,7.5c-2.9,1.7-4.8,1.6-7.1,0.6c-3-1.3-3-4.4-2.5-7c0.5-2.9,1.6-5.7,2.7-8.4
			C186.3,146.7,187.9,143.8,183,141.2z"/>
		<path stroke="#000000" stroke-linecap="round" stroke-linejoin="round" stroke-miterlimit="10" d="M188,167.3
			c-1.3,0-2.5-0.3-3.7-0.9c-3.1-1.4-4.3-4.3-3.5-8.8c0.6-3.1,1.8-6.2,2.7-8.7l0.3-0.7c1.1-2.7,1.6-4-1.6-5.7l1.4-2.9
			c5.9,2.4,10.3,0.9,15.5-2.3c4.3-2.7,3.4-4.2,3-4.8c-1-1.8-1.6-3.9-2.2-6c-1.6-5.3-2.8-9.5-9.8-9.2c-0.3,0-0.6-0.1-0.9-0.2
			c0,1.1-0.4,2.4-2.3,3.2c-1.3,0.6-2.3,0.3-2.9,0c-1.2-0.6-2-1.8-2.5-3.8c-0.1-0.4-0.2-0.8-0.4-1.2c-0.8-2.4-1.9-6,1.8-8.4
			c5.2-3.3,10.7-6.2,17.2-1.9c0.4,0.3,1.1,0.4,1.3,0.4c13.5-5.9,19.3-4.4,26,7.1l0.6,1l-0.7,0.9c-0.4,0.4-0.8,0.7-1.2,0.9
			c6,3.5,4.2,10,3.3,13.2c-0.5,1.7-1.3,3.3-2,4.9c-0.6,1.3-1.3,2.6-1.7,3.9c-0.7,2.1-1.6,4.1-2.7,6.3c-0.5,1-1,2.1-1.5,3.3l-1.1,2.4
			l-1.6-2.1c-2.2-2.8-1.6-5.2-1.2-7c0.1-0.4,0.2-0.8,0.3-1.3c0.3-2.1-0.1-3.9-1-5.1c-0.7-0.9-1.7-1.3-3-1.5
			c-2.4-0.3-3.1,1.1-3.9,5.2l-0.2,0.8c-0.6,2.7,0.6,5.2,1.9,7.9l0.1,0.2c2.3,5-0.2,7.5-2.8,10.1c-0.4,0.4-0.8,0.8-1.3,1.2
			c-3.1,3.2-6.5,4.4-9.8,5.6c-1.8,0.7-3.5,1.3-5.1,2.2C191,166.9,189.4,167.3,188,167.3z M187.8,144.1c0.5,2-0.3,3.9-0.9,5.4
			l-0.3,0.7c-0.9,2.3-2,5.3-2.6,8.1c-0.7,3.7,0.4,4.7,1.6,5.2c1.8,0.8,3.2,0.9,5.6-0.5c1.8-1.1,3.8-1.8,5.6-2.4
			c3.1-1.1,6-2.2,8.5-4.8c0.5-0.5,0.9-0.9,1.3-1.3c2.6-2.5,3.5-3.4,2.2-6.4l-0.1-0.2c-1.3-2.9-2.8-6.2-2.1-9.9l0.1-0.7
			c0.6-3.1,1.7-8.4,7.4-7.8c2.2,0.2,4,1.2,5.2,2.7c1.5,1.8,2,4.4,1.7,7.5c-0.1,0.5-0.2,0.9-0.3,1.4c0.7-1.6,1.4-3.1,1.9-4.6
			c0.5-1.5,1.2-2.9,1.9-4.2c0.7-1.5,1.4-2.9,1.8-4.3c1.4-5,1.4-8.1-2.6-9.9c-0.2-0.1-0.7-0.1-1-0.1c-1.1-0.1-2.5-0.2-3.3-1.4
			c-0.8-1.2-0.3-2.7-0.1-3.1c0.4-1.1,1-1.7,1.8-2c0.5-0.2,1.1-0.2,1.5,0c-4.9-7-9.3-7.2-20-2.6c-1.5,0.7-3.4-0.2-4.2-0.7
			c-4.9-3.2-9.1-1-13.7,1.9c-1.5,1-1.3,2.1-0.5,4.7c0.1,0.5,0.3,0.9,0.4,1.4c0.4,1.4,0.7,1.7,0.8,1.7c0,0,0.1,0,0.2-0.1
			c0.4-0.2,0.5-0.3,0.5-0.3c0-0.1-0.3-0.7-0.4-1.1c-0.5-1.1-1.2-2.7-0.1-4.3c0.3-0.4,0.7-0.7,1-1c0.1-0.1,0.2-0.2,0.4-0.3l1.6-1.4
			l0.9,1.9c0.3,0.5,0.5,1.1,0.8,1.8c0.2,0.4,0.4,1,0.6,1.4c8.8,0.1,10.7,6.4,12.2,11.6c0.6,1.9,1.1,3.8,2,5.3
			c1.2,2.2,1.5,5.6-4.1,9.1C197.3,142.4,193.1,144.6,187.8,144.1z M222.3,114.8L222.3,114.8L222.3,114.8z"/>
	</g>
	<g>
		<path stroke="#000000" stroke-linecap="round" stroke-linejoin="round" stroke-miterlimit="10" d="M135,121.3c0.1-3.4-1.7-5-5-5.2
			c-6.6-7-15.2-10.1-24.3-11.8c-4.5-0.9-6.4,2.8-8.2,6.1c-1.7-8.1,1.5-11.5,9.5-10.3c4.3,0.7,8,3,11.8,4.9
			c18.5,9.6,37,19.3,56.8,25.8c5.5,1.8,11.8,5.8,17-1.5c-0.3,6.2-4.6,7.3-9.3,7c-5-0.4-11.1-3.8-14.5-1.9c-3.1,1.8-2.8,9-4.6,13.6
			c-2.3,5.7-5.6,10.8-10.8,14.6c-3.3-4.8-3.9-9.1,1.1-12.8c0.6-0.5,1.1-1.2,1.5-1.9c2.2-4.2,6.3-9.4,3-13.2
			c-2.9-3.3-7.7-7.2-13.6-5.7C138.4,131.1,138.3,124.2,135,121.3z"/>
		<path stroke="#000000" stroke-linecap="round" stroke-linejoin="round" stroke-miterlimit="10" d="M152.9,165l-0.9-1.4
			c-1.5-2.3-6.2-9.2,1.5-15c0.3-0.2,0.6-0.7,1-1.4c0.4-0.7,0.8-1.5,1.2-2.2c2.4-4.1,3.8-7,2-9.1c-4-4.5-8-6.2-12-5.2
			c-6,1.6-8.1-2.3-9.7-5.2c-0.7-1.2-1.3-2.4-2.1-3.1l-0.6-0.5l0-0.7c0-2.4-0.9-3.4-3.5-3.6l-0.6,0l-0.4-0.5
			c-5.5-5.8-12.7-9.3-23.4-11.3c-3.1-0.6-4.4,1.5-6.4,5l-2.3,4.1l-0.9-4.2c-1-4.7-0.4-8,1.6-10.1c2-2.1,5.2-2.8,9.8-2.1
			c3.9,0.6,7.2,2.4,10.4,4.1c0.6,0.3,1.3,0.7,1.9,1l0.6,0.3c17.9,9.4,36.5,19,56,25.4c0.9,0.3,1.7,0.6,2.6,0.9
			c4.7,1.8,8.9,3.4,12.6-1.8l3.2-4.4l-0.3,5.4c-0.1,2.8-1,5-2.7,6.4c-1.9,1.7-4.6,2.3-8.3,2.1c-2-0.1-4.2-0.8-6.2-1.3
			c-2.9-0.8-5.8-1.6-7.4-0.8c-1.3,0.7-1.9,3.9-2.4,6.7c-0.4,2.1-0.8,4.2-1.5,6c-2.6,6.7-6.4,11.7-11.4,15.4L152.9,165z M148,127.2
			c4.2,0,8.3,2.2,12.2,6.6c3.5,4,0.7,8.9-1.6,12.9c-0.4,0.7-0.8,1.4-1.2,2.1c-0.6,1.1-1.2,1.9-1.9,2.4c-3.4,2.5-3.9,5.2-1.7,9.1
			c3.8-3.2,6.8-7.4,8.9-12.9c0.6-1.5,1-3.5,1.3-5.5c0.7-3.8,1.4-7.5,4-8.9c2.7-1.5,6.2-0.5,9.8,0.5c0.6,0.2,1.2,0.3,1.8,0.5
			c-0.7-0.2-1.4-0.5-2.1-0.8c-0.8-0.3-1.7-0.6-2.5-0.9c-16.7-5.5-32.6-13.3-48.1-21.3c1.3,1,2.6,2.1,3.8,3.3
			c3.6,0.5,5.6,2.6,5.8,6.1c0.9,1,1.6,2.2,2.3,3.4c1.7,3.1,2.7,4.5,6,3.6C146,127.4,147,127.2,148,127.2z M104.1,101.5
			c-2,0-3.4,0.4-4.3,1.3c-0.6,0.6-0.9,1.5-1.1,2.6c1.6-2,3.9-3.4,7.3-2.8c3.5,0.7,6.6,1.5,9.5,2.4c-2.9-1.5-5.6-2.9-8.7-3.4
			C105.8,101.6,104.9,101.5,104.1,101.5z"/>
	</g>
	<g>
		<path stroke="#000000" stroke-linecap="round" stroke-linejoin="round" stroke-miterlimit="10" d="M53.4,156.3
			c-2.9-11.2-6.6-22.2-11.8-34c-1.6,4.5-3.5,7.4-7,9c-2.9,1.3-5.7,1.8-8.2-0.5c-2.9-2.5-2.7-5.6-1.4-8.8c1.3-3.3,4.1-3.9,7.2-3.6
			c2.1,0.2,4.2,0.6,6.3,0.9c0.8-2.2,3.6-1.9,4.6-3.7c-1.8-11.5,4.6-4.1,8.1-3.5c1.3,1.4,1.1,3,0.6,4.6c-0.7,12.7,0.5,25.2,3.1,37.6
			C55.5,155.9,54.9,156.4,53.4,156.3z"/>
		<path stroke="#000000" stroke-linecap="round" stroke-linejoin="round" stroke-miterlimit="10" d="M53.7,157.9c-0.1,0-0.3,0-0.4,0
			l-1.2-0.1l-0.3-1.1c-2.8-10.8-6.1-20.5-10.2-30.3c-1.3,2.6-3.2,5-6.4,6.4c-2.6,1.1-6.4,2.3-9.9-0.7c-3-2.6-3.6-6.2-1.9-10.6
			c2.1-5.2,7.2-4.8,8.9-4.6c1.5,0.1,3,0.4,4.5,0.6c0.3,0,0.6,0.1,0.9,0.1c0.7-1,1.8-1.4,2.6-1.8c0.5-0.2,0.9-0.4,1.2-0.6
			c-0.5-3.9-0.1-6,1.3-7c1.8-1.3,4.1,0,6.1,1.2c0.9,0.5,2,1.1,2.6,1.3l0.5,0.1l0.4,0.4c1.8,2,1.5,4.2,1,6
			c-0.6,11.9,0.4,24.3,3.1,36.8c0.5,1.2,0.5,2.2-0.1,3C55.8,157.6,54.9,157.9,53.7,157.9z M41.6,118.7l1.3,3
			c3.2,7.1,5.9,14.1,8.2,21.5c-1.2-9-1.6-17.8-1.1-26.5l0.1-0.4c0.4-1.3,0.4-2.1,0-2.7c-1-0.3-2-0.9-3-1.5c-0.8-0.4-2.1-1.2-2.6-1.3
			c-0.1,0.3-0.4,1.4,0.1,4.5l0.1,0.6l-0.3,0.5C43.7,117.7,42.6,118.2,41.6,118.7z M30.8,120c-2.4,0-3.7,0.8-4.4,2.7
			c-1.3,3.2-1,5.3,1,7c1.7,1.5,3.5,1.5,6.5,0.2c2.8-1.2,4.5-3.5,6.1-8.1l1-2.8c-0.6,0.3-0.9,0.5-1.1,0.9l-0.4,1.2l-1.3-0.2
			c-0.7-0.1-1.3-0.2-2-0.3c-1.4-0.2-2.9-0.4-4.3-0.6C31.6,120,31.2,120,30.8,120z"/>
	</g>
	<g>
		<path stroke="#000000" stroke-linecap="round" stroke-linejoin="round" stroke-miterlimit="10" d="M128,164.9
			c5.3,15.4,17.4,20.5,30.3,25.4c-10,0-19.9-0.1-29.9,0c-6,0.1-5.5-4.3-5.2-7.7C123.7,177.1,125,171.6,128,164.9z"/>
		<path stroke="#000000" stroke-linecap="round" stroke-linejoin="round" stroke-miterlimit="10" d="M128.3,192
			c-2.3,0-4-0.6-5.2-1.9c-1.9-2-1.7-5-1.5-7.4l0-0.2c0.5-6.2,2-11.8,4.9-18.2l1.7-3.7l1.3,3.8c4.9,14.3,15.7,19.3,29.4,24.4l8.4,3.1
			h-8.9c-3,0-5.9,0-8.9,0c-6.9,0-14,0-21,0.1C128.4,192,128.3,192,128.3,192z M127.9,169.2c-1.8,4.6-2.8,8.9-3.1,13.6l0,0.2
			c-0.1,1.9-0.3,4,0.6,5c0.5,0.6,1.6,0.9,3,0.8c7-0.1,14.2-0.1,21.1-0.1c0.1,0,0.3,0,0.4,0C140.5,184.6,132.6,179.3,127.9,169.2z"/>
	</g>
	<g>
		<path stroke="#000000" stroke-linecap="round" stroke-linejoin="round" stroke-miterlimit="10" d="M22.4,38.9
			c-0.4,2.1-0.8,4.2-1.3,6.2c-0.8,3.2-0.3,5.1,3.7,4.6c3.8-0.5,6.4,1.5,6.4,5.3c0,3.4-2,6.6-5.8,6.3c-5.3-0.4-5,2.2-4.1,5.8
			c1.1,4.4,2,8.8,3,13.2c0.7,1.7-0.1,2.1-1.6,1.9c-0.4-0.3-0.8-1-1.1-0.9c-4.1,1-9,3-10.8-2.7c-1.4-4.6,1.8-7,6.5-8
			c3.9-0.8,1.4-4.1,1.1-5.9c-1.3-9.4-1-18.5,2.7-27.4C22.2,37.2,23.1,37.4,22.4,38.9z"/>
		<path stroke="#000000" stroke-linecap="round" stroke-linejoin="round" stroke-miterlimit="10" d="M15.6,84c-2.6,0-5.1-1-6.3-4.9
			c-0.7-2.2-0.5-4.1,0.4-5.8c1.2-2.1,3.7-3.6,7.2-4.3c0.6-0.1,0.8-0.3,0.9-0.4c0.1-0.3-0.3-1.4-0.5-1.9c-0.2-0.6-0.4-1.2-0.5-1.8
			c-1.5-10.7-0.6-20,2.8-28.2l0.4-0.9l1-0.1c0.6,0,2.1-0.1,2.9,1c0.5,0.7,0.5,1.6,0.1,2.7c-0.1,0.6-0.2,1.2-0.4,1.7
			c-0.3,1.4-0.6,2.9-0.9,4.4c-0.5,2-0.2,2.4-0.2,2.4c0,0,0.3,0.4,2.1,0.2c2.5-0.3,4.6,0.3,6.1,1.6c1.4,1.3,2.1,3.1,2.1,5.4
			c0,2.5-0.9,4.8-2.5,6.2c-1.3,1.2-3.1,1.8-5.1,1.6c-2.1-0.2-2.6,0.3-2.7,0.3c-0.4,0.5,0.1,2.6,0.3,3.4c0.7,3.1,1.4,6.1,2.1,9.2
			l0.9,3.9c0.5,1.2,0.4,2.2-0.2,3c-0.9,1.2-2.6,1-3.2,0.9L22,83.8l-0.4-0.3c-0.1-0.1-0.3-0.2-0.4-0.4c-0.2,0-0.4,0.1-0.6,0.1
			C19.1,83.6,17.3,84,15.6,84z M20.4,70.5c-0.6,0.8-1.5,1.3-2.8,1.6c-2.6,0.6-4.4,1.5-5.1,2.8c-0.5,0.9-0.6,1.9-0.2,3.2
			c1,3.3,3,3.1,7.5,1.9c0.5-0.1,0.9-0.2,1.4-0.3c0.5-0.1,1,0,1.3,0.2l-0.7-3.3C21.3,74.6,20.9,72.6,20.4,70.5z M19.6,49.4
			c-0.4,3.9-0.4,8,0,12.4c0.1-0.2,0.3-0.4,0.4-0.6c1.4-1.6,3.7-1.6,5.4-1.5c1.1,0.1,2-0.2,2.6-0.8c0.9-0.8,1.4-2.2,1.4-3.9
			c0-1.3-0.3-2.3-1-2.9c-0.8-0.7-2-1-3.5-0.8c-2.3,0.3-4-0.1-4.9-1.2C19.9,49.9,19.7,49.7,19.6,49.4z"/>
	</g>
	<g>
		<path stroke="#000000" stroke-linecap="round" stroke-linejoin="round" stroke-miterlimit="10" d="M205.8,56.6
			c-26.2-18.4-54.6-24.4-85.8-16.1c-2.3,0.6-4.6,1.4-6.9,2.1c-2.2,0.6-4,2.5-6.7,1.9c15.1-14.4,69.3-17.2,101.1,10.6
			C207.7,56.5,207.5,57.3,205.8,56.6z"/>
		<path stroke="#000000" stroke-linecap="round" stroke-linejoin="round" stroke-miterlimit="10" d="M206.8,58.5
			c-0.5,0-1-0.1-1.6-0.3l-0.3-0.2c-26.2-18.4-54.6-23.8-84.5-15.9c-1.3,0.3-2.7,0.8-4,1.2c-0.9,0.3-1.9,0.6-2.9,0.9
			c-0.6,0.2-1.1,0.5-1.8,0.8c-1.5,0.8-3.4,1.7-5.8,1.1l-2.9-0.7l2.1-2c16.4-15.7,71.4-17.3,103.3,10.6l0.4,0.4l0.1,0.6
			c0.1,0.5,0.3,2.2-0.8,3.1C207.9,58.3,207.4,58.5,206.8,58.5z M133,36.2c-2.7,0.3-5.3,0.8-7.8,1.4C127.8,37,130.4,36.6,133,36.2z"
			/>
	</g>
	<g>
		<path stroke="#000000" stroke-linecap="round" stroke-linejoin="round" stroke-miterlimit="10" d="M28.5,90.5
			c1.8,0.8,0,7.8,5.1,2.9c2.5-2.4,5.4-3,7.3,0.1c1.7,2.8,1.8,6-0.8,8.8c-1.4,1.4-4.4,1-4.6,3.9c0.7,1.5,0.1,2-1.4,1.8
			c-1.3-2.7-2.1-5.4-6.1-2.5c-2.7,2-6,1-9.1-0.5c-2.9-1.4-5-3.3-4.3-6.7c0.8-3.5,3.3-4.8,7-5.1c1.7-0.1,4.6,3.7,5.4-1
			C26.2,90.5,27.1,90.3,28.5,90.5z"/>
		<path stroke="#000000" stroke-linecap="round" stroke-linejoin="round" stroke-miterlimit="10" d="M34.6,109.6c-0.2,0-0.5,0-0.7,0
			l-0.9-0.1l-0.6-1.3c-0.4-0.9-1-2.1-1.4-2.3c-0.1,0-0.6-0.1-2,0.9c-3.5,2.6-7.8,1.1-10.7-0.3c-4.2-2-6-4.9-5.2-8.5
			c1.2-5.8,6.7-6.2,8.4-6.4c1-0.1,1.9,0.4,2.7,0.8c0.3,0.1,0.7,0.4,1,0.5c0-0.1,0.1-0.3,0.2-0.5c-0.4-1-0.3-1.9,0.1-2.6
			c0.9-1.2,2.6-1,3.2-0.9l0.4,0.1c1.4,0.6,1.7,2.2,2,3.4c0,0.2,0.1,0.5,0.2,0.8c0.3-0.2,0.6-0.5,1.2-1c1.9-1.8,3.9-2.7,5.7-2.5
			c1.1,0.1,2.7,0.7,4.1,2.9c2.3,3.7,1.9,7.7-1.1,10.8c-0.8,0.8-1.7,1.1-2.5,1.4c-1.1,0.4-1.5,0.6-1.6,1.1c0.4,1,0.3,1.9-0.2,2.6
			C36.5,109.2,35.7,109.6,34.6,109.6z M21.7,94.8c-3.9,0.3-5,1.8-5.5,3.8c-0.3,1.5-0.2,3.2,3.4,4.9c3.5,1.7,5.7,1.8,7.4,0.6
			c1.2-0.9,2.9-2,4.8-1.5c1.1,0.3,1.8,1,2.4,1.9c0.7-1.7,2.3-2.3,3.3-2.7c0.6-0.2,1.1-0.4,1.4-0.7c2.6-2.6,1.5-5.4,0.6-6.8
			c-0.5-0.8-1.1-1.3-1.7-1.4c-0.8-0.1-2,0.5-3.1,1.6c-1.3,1.3-2.9,2.6-4.6,2.1c-1.2-0.4-1.7-1.4-2-2.5c-0.3,0.7-0.8,1.4-1.5,1.7
			c-1.4,0.7-2.9-0.1-3.9-0.6C22.4,95.1,21.9,94.8,21.7,94.8z"/>
	</g>
	<g>
		<path stroke="#000000" stroke-linecap="round" stroke-linejoin="round" stroke-miterlimit="10" d="M63.9,77.5
			c0,2.2,1.5,2.3,3.2,2.5c3,0.5,4.8,2.5,4.6,5.5c-0.1,2.9-1.6,5.2-4.4,6.2c-2.9,1.1-5.2,0.1-6.3-3c-2-0.6-3.9-1.2-5-3.1
			c-1.6-0.1-3.2-0.1-4.8-0.4c-2.6-0.4-4.6-1.5-5.1-4.3c-0.4-2.3,0.4-4.1,2.5-5.4c2.5-1.5,4.5-0.5,6.7,0.7c2,1,3.3,7.2,6.5,1.1
			C62.7,76.5,63.3,76.6,63.9,77.5z"/>
		<path stroke="#000000" stroke-linecap="round" stroke-linejoin="round" stroke-miterlimit="10" d="M65.2,93.8
			c-0.9,0-1.7-0.2-2.5-0.5c-1.3-0.6-2.2-1.7-2.9-3.2c-1.6-0.5-3.4-1.2-4.6-2.9c-0.2,0-0.4,0-0.7,0c-1.1-0.1-2.3-0.1-3.4-0.3
			c-4.6-0.6-6.1-3.4-6.5-5.6c-0.5-3,0.6-5.4,3.3-7.1c3.2-2,5.9-0.6,8.3,0.6c0.9,0.5,1.6,1.4,2.2,2.3c0.3,0.4,0.7,1,1,1.2
			c0.2-0.2,0.6-0.6,1.2-1.7l0.1-0.2l0.2-0.2c0.9-0.9,1.8-1,2.4-0.9c0.6,0.1,1.4,0.4,2.1,1.5l0.3,0.4l0,0.5c0,0.4,0.1,0.5,0.1,0.5
			c0.1,0.1,0.9,0.2,1.3,0.3l0.4,0.1c3.9,0.6,6.1,3.3,6,7.2c-0.2,3.6-2.2,6.4-5.4,7.6C66.9,93.6,66,93.8,65.2,93.8z M51.3,76.4
			c-0.6,0-1.1,0.2-1.7,0.5c-1.5,0.9-2.1,2.1-1.8,3.7c0.2,1.2,0.8,2.6,3.7,3c1,0.1,2.1,0.2,3.1,0.3c0.5,0,1,0.1,1.5,0.1l0.9,0.1
			l0.4,0.8c0.7,1.3,2.1,1.8,4,2.3l0.8,0.2l0.3,0.8c0.4,1.1,0.9,1.8,1.5,2.1c0.8,0.4,1.9,0.2,2.7-0.1c2-0.7,3.2-2.4,3.3-4.7
			c0.1-2.2-1-3.5-3.3-3.9l-0.4-0.1c-1.1-0.2-3-0.5-3.8-2.2c-0.7,1.1-1.7,2.1-3,2.2c-1.8,0.1-2.9-1.4-3.8-2.7c-0.3-0.4-0.8-1.1-1-1.3
			C53.2,76.9,52.2,76.4,51.3,76.4z"/>
	</g>
	<g>
		<path stroke="#000000" stroke-linecap="round" stroke-linejoin="round" stroke-miterlimit="10" d="M59.4,159.4
			c2.3-4.8,5.5-9,1.1-14.8c-2.3-3.1,0.9-8,4.2-7.6c9.2,1.1,8.7-6.3,11.3-11.1c1.4-0.1,2.2,0.4,1.3,1.9c-3,12.9-8.2,24.6-17.6,34.1
			C58.8,161.2,58.7,160.4,59.4,159.4z"/>
		<path stroke="#000000" stroke-linecap="round" stroke-linejoin="round" stroke-miterlimit="10" d="M59.8,164.1l-1.1-0.9
			c-1.5-1.2-1.7-2.9-0.7-4.5c0.3-0.6,0.6-1.2,0.9-1.7c2-3.9,3.6-7.1,0.3-11.3c-1.4-1.9-1.5-4.5-0.2-6.8s3.6-3.6,5.9-3.4
			c5.7,0.7,6.7-2.2,8-6.2c0.5-1.4,0.9-2.8,1.7-4.1l0.4-0.8l0.9,0c0.5,0,2.2-0.1,3,1.2c0.5,0.8,0.5,1.8-0.1,2.9
			c-3.3,14.4-9.2,25.8-18,34.7L59.8,164.1z M64.3,138.6c-0.9,0-1.9,0.7-2.5,1.8c-0.5,0.9-0.8,2.3-0.1,3.3c3.5,4.6,2.8,8.5,1.3,12
			c4.4-5.7,7.9-12.4,10.5-20.1c-1.6,2.1-4.2,3.6-9,3.1C64.4,138.6,64.4,138.6,64.3,138.6z"/>
	</g>
	<g>
		<path stroke="#000000" stroke-linecap="round" stroke-linejoin="round" stroke-miterlimit="10" d="M238.2,95.2
			c8.6,19.9,11.2,40.2,4.8,61.3c-1.5-1.3-0.2-3.4-1.4-4.9c2.7-18.1,1.4-35.9-4.9-53.2C237.5,97.4,236.9,95.9,238.2,95.2z"/>
		<path stroke="#000000" stroke-linecap="round" stroke-linejoin="round" stroke-miterlimit="10" d="M243.9,159.3l-1.9-1.6
			c-1.4-1.2-1.4-2.8-1.4-3.8c0-0.7,0-1.1-0.2-1.3L240,152l0.1-0.7c2.7-18.5,1.1-36.1-4.8-52.4l-0.3-0.7l0.4-0.7
			c0.1-0.1,0.1-0.5,0.1-0.7c0.1-0.8,0.3-2.3,1.8-3.1l1.6-0.9l0.7,1.6c9.4,21.8,11,42.2,4.9,62.4L243.9,159.3z M242.7,113.5
			c1.9,9.7,2.4,19.8,1.6,30.1C245.6,133.8,245.1,123.8,242.7,113.5z"/>
	</g>
	<g>
		<path stroke="#000000" stroke-linecap="round" stroke-linejoin="round" stroke-miterlimit="10" d="M123.9,230.2
			c-18.8-3.8-34.4-13.4-47.7-27.3c16.1,11.7,32.9,21.9,52.6,25.9C127.5,230.4,125.3,229,123.9,230.2z"/>
		<path stroke="#000000" stroke-linecap="round" stroke-linejoin="round" stroke-miterlimit="10" d="M124.3,231.9l-0.8-0.2
			C105.3,228.1,89.4,219,75,204l2.1-2.4c14.3,10.3,31.6,21.5,52,25.6l2.6,0.5l-1.7,2.1c-1.2,1.5-2.8,1.4-3.9,1.5
			c-0.7,0-1.1,0-1.3,0.2L124.3,231.9z"/>
	</g>
	<g>
		<path stroke="#000000" stroke-linecap="round" stroke-linejoin="round" stroke-miterlimit="10" d="M241.7,151.6
			c1.6,1.3,1.3,3.2,1.4,4.9c-3.9,19.1-13.2,35-27.4,48.2c-0.9-0.2-1.4-0.7-1.6-1.6C227.8,188.4,237.5,171.4,241.7,151.6z"/>
		<path stroke="#000000" stroke-linecap="round" stroke-linejoin="round" stroke-miterlimit="10" d="M216.1,206.4l-0.8-0.2
			c-1.5-0.3-2.6-1.3-2.9-2.9l-0.2-0.8l0.6-0.6c14.4-15.4,23.3-32,27.3-50.7l0.5-2.6l2,1.6c1.9,1.5,1.9,3.6,1.9,5.1
			c0,0.3,0,0.6,0,0.9l0,0.2l0,0.2c-3.8,18.9-13.2,35.5-27.9,49.1L216.1,206.4z"/>
	</g>
	<g>
		<path stroke="#000000" stroke-linecap="round" stroke-linejoin="round" stroke-miterlimit="10" d="M59.4,159.4
			c0.1,0.8,0.2,1.6,0.3,2.4c-2.6,9.3,0.4,18.4,0.7,27.6c0.4,9.3-0.9,18.3-2.6,27.4c1-20.4,0-40.6-4.4-60.5c0.5-0.7,1-1.3,1.5-2
			C57.9,154.7,53.7,161.4,59.4,159.4z"/>
		<path stroke="#000000" stroke-linecap="round" stroke-linejoin="round" stroke-miterlimit="10" d="M59.4,217.1l-3.2-0.4
			c1.1-22.1-0.4-41.7-4.4-60.1l-0.2-0.7l2.5-3.3l0.9,0.1c2.7,0.3,2.7,3,2.7,4.3c0,0.3,0,0.8,0,1.1c0.2,0,0.5-0.1,1.1-0.3l1.9-0.7
			l0.6,4.7l-0.1,0.3c-1.7,6-0.9,11.9-0.1,18.2c0.4,2.9,0.8,5.9,0.9,8.9C62.4,199.5,60.9,209.1,59.4,217.1z M56,161
			c0.4,2.1,0.8,4.3,1.1,6.4c0.1-1.9,0.4-3.8,0.9-5.7l0-0.3C57.3,161.5,56.6,161.4,56,161z"/>
	</g>
	<g>
		<path stroke="#000000" stroke-linecap="round" stroke-linejoin="round" stroke-miterlimit="10" d="M214,203.1
			c0.5,0.5,1.1,1.1,1.6,1.6c-13,13.3-28.6,21.7-46.7,25.6c-1.1-1-3-0.1-3.8-1.7C183.6,224.3,199.8,215.6,214,203.1z"/>
		<path stroke="#000000" stroke-linecap="round" stroke-linejoin="round" stroke-miterlimit="10" d="M168.4,232l-0.6-0.6
			c-0.1-0.1-0.6-0.1-0.8-0.2c-0.9-0.1-2.5-0.3-3.3-1.9l-1-1.8l2-0.5c17.7-4.1,33.9-12.5,48.2-25.1l1.1-1l3.8,3.8l-1.1,1.1
			c-13,13.3-29,22.1-47.6,26L168.4,232z M198.6,216.5c-3.6,2.2-7.2,4.2-11,5.9C191.4,220.8,195.1,218.8,198.6,216.5z"/>
	</g>
	<g>
		<path stroke="#000000" stroke-linecap="round" stroke-linejoin="round" stroke-miterlimit="10" d="M238.2,95.2
			c-0.5,1.1-0.9,2.1-1.4,3.2c-6.9-16.5-17.5-30.2-31-41.8c0.6-0.5,1.1-1,1.7-1.5C221.7,65.4,231.9,78.8,238.2,95.2z"/>
		<path stroke="#000000" stroke-linecap="round" stroke-linejoin="round" stroke-miterlimit="10" d="M236.8,102.5l-1.5-3.5
			c-6.5-15.7-16.5-29.2-30.6-41.1l-1.4-1.2l4-3.6l1.1,0.8c14.4,10.5,24.9,24.2,31.2,40.8l0.2,0.6L236.8,102.5z M221,69.6
			c2.5,3,4.9,6.1,7,9.2C225.9,75.5,223.6,72.5,221,69.6z"/>
	</g>
	<g>
		<path stroke="#000000" stroke-linecap="round" stroke-linejoin="round" stroke-miterlimit="10" d="M63.9,77.5
			c-0.6-0.1-1.3-0.2-1.9-0.2c1-3.5,4-6.3-0.3-10.5c-2.9-2.8-1.1-7.3,4.4-7.3c3.1,0,6.5,1,8.3-2.8c1.2-0.1,2.1,0,1.2,1.5
			C75.5,66.9,68.3,71.4,63.9,77.5z"/>
		<path stroke="#000000" stroke-linecap="round" stroke-linejoin="round" stroke-miterlimit="10" d="M64.6,79.2l-4.7-0.6l0.5-1.8
			c0.3-0.9,0.6-1.7,1-2.5c1.1-2.4,1.7-3.9-0.8-6.4c-1.7-1.7-2.3-4-1.5-6.1c1-2.5,3.6-4,7-4c0.6,0,1.2,0,1.7,0.1
			c2.7,0.1,4.1,0.1,5.1-2l0.4-0.8l0.9-0.1c0.7-0.1,2.2-0.2,3,1c0.5,0.7,0.5,1.6,0,2.5c-0.2,6.8-4.1,11.1-8,15.3
			c-1.4,1.6-2.8,3-4,4.6L64.6,79.2z M66.1,61.1C66.1,61.1,66.1,61.1,66.1,61.1c-2.5,0-3.7,1-4.1,1.9c-0.3,0.9-0.1,1.8,0.7,2.6
			c3.1,3,3.1,5.5,2.4,7.7c0.5-0.6,1.1-1.2,1.6-1.7c3.3-3.6,6.4-7,7-11.7c-1.9,1.5-4.3,1.3-6.2,1.2C67.1,61.1,66.6,61.1,66.1,61.1z"
			/>
	</g>
	<g>
		<path stroke="#000000" stroke-linecap="round" stroke-linejoin="round" stroke-miterlimit="10" d="M165.1,228.6
			c1.3,0.6,2.5,1.1,3.8,1.7c-15,4.7-30,4.6-45,0c1.3-1.7,3.2-1.2,5-1.4C140.9,230.5,153,230.5,165.1,228.6z"/>
		<path stroke="#000000" stroke-linecap="round" stroke-linejoin="round" stroke-miterlimit="10" d="M146.6,235.3
			c-7.7,0-15.4-1.2-23.2-3.6l-2.2-0.7l1.4-1.8c1.5-1.9,3.5-1.9,5-2c0.4,0,0.7,0,1.1-0.1l0.2,0l0.2,0c12,1.7,24,1.7,35.8-0.2l0.5-0.1
			l8.1,3.6l-4.1,1.3C161.9,234.1,154.3,235.3,146.6,235.3z M134.5,231.1c8.3,1.4,16.5,1.4,24.6-0.1
			C151,231.8,142.8,231.9,134.5,231.1z"/>
	</g>
	<g>
		<path stroke="#000000" stroke-linecap="round" stroke-linejoin="round" stroke-miterlimit="10" d="M134.2,95.2
			c9.6-7.6,16.2-8.2,24.6-3.2c6.7,4,9.9,9.7,8.6,18.7C159.4,91.4,154.9,89.3,134.2,95.2z"/>
		<path stroke="#000000" stroke-linecap="round" stroke-linejoin="round" stroke-miterlimit="10" d="M168.2,116.6l-2.2-5.3
			c-7.8-18.6-11.3-20.2-31.3-14.5l-7.9,2.2l6.4-5c10.1-7.9,17.2-8.8,26.4-3.4c7.8,4.6,10.8,11.1,9.4,20.3L168.2,116.6z M160,94.6
			c2,2,3.8,4.7,5.7,8.3C164.9,99.6,163.1,96.9,160,94.6z M148.8,90.3c-1.6,0-3.2,0.3-4.9,0.9c3.6-0.6,6.6-0.7,9.1-0.2
			C151.6,90.5,150.2,90.3,148.8,90.3z"/>
	</g>
	<g>
		<path stroke="#000000" stroke-linecap="round" stroke-linejoin="round" stroke-miterlimit="10" d="M77.3,127.8
			c-0.4-0.6-0.9-1.3-1.3-1.9c0.7-2.7,2-5.1-0.1-8.1c-1.7-2.4-1.3-6,2.1-7.5c3.3-1.4,6.3-0.5,8.1,2.8c1.9,3.4,0.1,6.3-2.7,7
			C78.9,121.2,79.6,125.5,77.3,127.8z"/>
		<path stroke="#000000" stroke-linecap="round" stroke-linejoin="round" stroke-miterlimit="10" d="M77,130.2l-2.8-4.1l0.2-0.7
			c0.1-0.4,0.2-0.9,0.4-1.3c0.7-2.1,1.1-3.6-0.3-5.5c-1.2-1.7-1.6-3.8-1-5.7c0.5-1.9,1.8-3.4,3.8-4.2c4.1-1.8,8-0.5,10.2,3.5
			c1.1,2,1.3,4,0.5,5.8c-0.7,1.7-2.3,3-4.3,3.5c-1.9,0.5-2.4,1.6-3.1,3.5c-0.5,1.2-1,2.6-2.2,3.7L77,130.2z M80.8,111.2
			c-0.7,0-1.4,0.2-2.2,0.5c-1,0.5-1.7,1.2-2,2.1c-0.3,1-0.1,2.1,0.6,2.9c1.3,1.8,1.6,3.4,1.5,5c0.8-1.4,2-2.6,4.3-3.2
			c1-0.3,1.8-0.9,2.1-1.7c0.4-0.9,0.2-1.9-0.4-3C83.7,112.1,82.3,111.2,80.8,111.2z"/>
	</g>
	<g>
		<path stroke="#000000" stroke-linecap="round" stroke-linejoin="round" stroke-miterlimit="10" d="M94.8,138
			c-0.2,4.1-1.9,6.9-6,7.1c-3.3,0.2-5.6-1.8-5.8-5.2c-0.3-4.5,2.4-7.1,6.6-7.4C93,132.2,94.5,134.8,94.8,138z"/>
		<path stroke="#000000" stroke-linecap="round" stroke-linejoin="round" stroke-miterlimit="10" d="M88.4,146.7
			c-4,0-6.8-2.7-7.1-6.8c-0.3-5.2,2.9-8.7,8.1-9.1c4-0.3,6.6,2.3,7,7l0,0.1l0,0.1c-0.2,5.4-2.9,8.4-7.6,8.6
			C88.7,146.7,88.5,146.7,88.4,146.7z M90,134.1c-0.2,0-0.3,0-0.4,0c-3.5,0.3-5.3,2.3-5.1,5.7c0.1,2.5,1.7,3.8,4.1,3.7
			c1.8-0.1,4.3-0.7,4.5-5.4C92.8,134.4,91,134.1,90,134.1z"/>
	</g>
	<g>
		<path stroke="#000000" stroke-linecap="round" stroke-linejoin="round" stroke-miterlimit="10" d="M75.5,58.1
			c-0.4-0.5-0.8-1-1.2-1.5c0.7-2.8,1.1-5.6,2.2-8.3c0.9-2.3,2.7-4,5.6-3.4c2.6,0.6,4.1,2.6,4.3,5.1c0.3,2.7-1.3,4.8-4,5
			C79.6,55.3,77.3,55.9,75.5,58.1z"/>
		<path stroke="#000000" stroke-linecap="round" stroke-linejoin="round" stroke-miterlimit="10" d="M75.5,60.7l-3-3.7l0.2-0.8
			c0.2-0.8,0.4-1.7,0.6-2.5c0.4-2,0.9-4,1.6-6c1.3-3.5,4.1-5.1,7.5-4.4c3.1,0.7,5.2,3.2,5.6,6.5c0.2,1.8-0.3,3.5-1.4,4.8
			c-1,1.2-2.5,1.9-4.1,2c-2.4,0.2-4.3,0.6-5.7,2.4L75.5,60.7z M80.9,46.5c-1.3,0-2.3,0.8-2.9,2.5c-0.7,1.7-1.1,3.6-1.5,5.5
			c-0.1,0.3-0.1,0.6-0.2,0.8c1.9-1.3,4-1.6,6-1.7c0.8-0.1,1.4-0.4,1.9-0.9c0.5-0.6,0.7-1.4,0.6-2.4c-0.1-1.1-0.7-3.2-3.1-3.7
			C81.4,46.5,81.1,46.5,80.9,46.5z"/>
	</g>
	<g>
		<path stroke="#000000" stroke-linecap="round" stroke-linejoin="round" stroke-miterlimit="10" d="M22.4,38.9
			c-0.5-0.5-0.9-1.1-1.4-1.6c-0.1-1.6-0.2-3.2-0.3-4.8c-0.1-3,1.8-4.4,4.4-4.6c2.3-0.2,4.3,0.8,5,3.2c0.7,2.5-0.9,3.9-3,5
			C25.6,37,24,38,22.4,38.9z"/>
		<path stroke="#000000" stroke-linecap="round" stroke-linejoin="round" stroke-miterlimit="10" d="M22.1,41L19.5,38l-0.1-2
			c-0.1-1.1-0.2-2.2-0.2-3.3c-0.1-3.6,2.1-6,5.9-6.3c3.2-0.3,5.9,1.4,6.7,4.3c1.2,4.2-2.5,6.2-3.8,6.9c-1.1,0.6-2.2,1.2-3.3,1.9
			c-0.5,0.3-1,0.6-1.5,0.9L22.1,41z M22.6,36.7l0.1,0.2c0.1-0.1,0.2-0.1,0.3-0.2c1.1-0.7,2.3-1.4,3.4-2c2.5-1.3,2.4-2.2,2.2-3.1
			c-0.6-2-2.5-2.1-3.3-2c-2.7,0.2-3,1.7-2.9,2.9c0,1.1,0.1,2.1,0.2,3.2L22.6,36.7z"/>
	</g>
	<g>
		<path stroke="#000000" stroke-linecap="round" stroke-linejoin="round" stroke-miterlimit="10" d="M82.2,30.8
			c3,0.1,4.8,1.5,4.6,4.4c-0.3,3-2.5,4.8-5.4,4.8c-2.7,0-4.5-1.7-4.4-4.6C77.2,32.2,79.4,31,82.2,30.8z"/>
		<path stroke="#000000" stroke-linecap="round" stroke-linejoin="round" stroke-miterlimit="10" d="M81.3,41.7
			c-1.8,0-3.3-0.6-4.4-1.7c-1.1-1.2-1.6-2.7-1.5-4.6c0.2-3.7,2.7-5.9,6.7-6.2l0.1,0l0.1,0c2.2,0.1,3.9,0.7,4.9,2
			c0.7,0.7,1.4,2.1,1.2,4.2C88,39.1,85.2,41.6,81.3,41.7C81.4,41.7,81.3,41.7,81.3,41.7z M82.2,32.5c-3.1,0.2-3.5,1.8-3.6,3.1
			c-0.1,0.9,0.2,1.7,0.6,2.2c0.5,0.5,1.2,0.8,2.1,0.7c2.2,0,3.6-1.3,3.8-3.4c0.1-0.8-0.1-1.4-0.4-1.8C84.3,32.8,83.5,32.5,82.2,32.5
			z"/>
	</g>
	<g>
		<path stroke="#000000" stroke-linecap="round" stroke-linejoin="round" stroke-miterlimit="10" d="M56.1,85.6
			c1.8,0.8,3.9,1.1,5,3.1c-6,6.5-6,15-7.9,22.9c-0.4,1.7,0.1,3.7-1.4,5.2c-0.2-1.5-0.4-3.1-0.6-4.6c-0.9-6.5,1.8-12.3,3.4-18.3
			C55.3,91.2,57.2,88.7,56.1,85.6z"/>
		<path stroke="#000000" stroke-linecap="round" stroke-linejoin="round" stroke-miterlimit="10" d="M50.5,120.1l-1-7.7
			c-0.8-5.3,0.8-10.1,2.2-14.7c0.4-1.4,0.9-2.8,1.3-4.2c0.2-0.9,0.6-1.7,0.9-2.5c0.7-1.7,1.3-3.2,0.7-4.9l-1.3-3.5l3.4,1.5
			c0.4,0.2,0.8,0.3,1.1,0.4c1.6,0.6,3.5,1.3,4.6,3.4l0.5,1l-0.8,0.8c-4.3,4.6-5.3,10.3-6.4,16.4c-0.3,1.9-0.7,3.9-1.2,5.8
			c-0.1,0.4-0.1,0.9-0.2,1.4c-0.1,1.4-0.2,3.1-1.7,4.6L50.5,120.1z M58,88.1c-0.1,1-0.3,1.9-0.7,2.8c0.5-0.8,1-1.5,1.6-2.3
			C58.7,88.4,58.4,88.2,58,88.1z"/>
	</g>
	<g>
		<path stroke="#000000" stroke-linecap="round" stroke-linejoin="round" stroke-miterlimit="10" d="M191.2,173.6
			c7.5-3.8,15-4.2,21.2-9.2C209.8,170.7,201.2,174.4,191.2,173.6z"/>
		<path stroke="#000000" stroke-linecap="round" stroke-linejoin="round" stroke-miterlimit="10" d="M193.9,175.3
			c-0.9,0-1.9,0-2.9-0.1l-5.7-0.5l5.1-2.6c3.1-1.6,6.2-2.6,9.1-3.5c4.3-1.4,8.3-2.7,11.8-5.5l4.9-4l-2.3,5.8
			C211.3,171.3,203.5,175.3,193.9,175.3z"/>
	</g>
	<g>
		<path stroke="#000000" stroke-linecap="round" stroke-linejoin="round" stroke-miterlimit="10" d="M11.7,42
			c-0.1,2.1-1.1,3.5-3.3,3.5c-2.6,0-4.9-1.1-5.1-3.8c-0.1-2.4,2.3-3.5,4.3-3.7C10.1,38,11.5,39.6,11.7,42z"/>
		<path stroke="#000000" stroke-linecap="round" stroke-linejoin="round" stroke-miterlimit="10" d="M8.4,47.2
			c-3.8,0-6.4-2.1-6.6-5.3c-0.2-3.3,2.8-5.2,5.8-5.4c3.1-0.2,5.3,1.9,5.7,5.3l0,0.1l0,0.1C13.2,45.3,11.4,47.2,8.4,47.2
			C8.4,47.2,8.4,47.2,8.4,47.2z M8,39.8c-0.1,0-0.1,0-0.2,0c0,0-2.9,0.2-2.8,2c0.1,2,2.4,2.2,3.4,2.2c0.8,0,1.6-0.2,1.7-1.9
			C9.9,40.6,9.2,39.8,8,39.8z"/>
	</g>
	<g>
		<path stroke="#000000" stroke-linecap="round" stroke-linejoin="round" stroke-miterlimit="10" d="M33.3,20.8
			c0.2-2.7,1.6-4.4,3.9-4.5c2.3-0.1,3.1,1.9,3.3,3.7c0.2,2.4-1.1,4.2-3.7,4C34.9,24,33.5,22.7,33.3,20.8z"/>
		<path stroke="#000000" stroke-linecap="round" stroke-linejoin="round" stroke-miterlimit="10" d="M37.1,25.7c-0.1,0-0.2,0-0.4,0
			c-2.8-0.1-4.8-2-5.1-4.7l0-0.1l0-0.1c0.3-3.6,2.3-5.8,5.4-6c2.7-0.2,4.7,1.9,5,5.2c0.2,1.7-0.3,3.3-1.3,4.3
			C40.1,24.9,39,25.7,37.1,25.7z M34.9,20.8c0.2,1,0.9,1.6,2,1.6c0.7,0,1.2-0.1,1.5-0.5c0.4-0.4,0.5-1,0.5-1.8
			c-0.1-1.1-0.5-2.3-1.6-2.3C36.7,17.9,35.2,18,34.9,20.8z"/>
	</g>
	<g>
		<path stroke="#000000" stroke-linecap="round" stroke-linejoin="round" stroke-miterlimit="10" d="M34.1,107.9
			c0.5-0.6,0.9-1.2,1.4-1.8c4.1,1.9,1.7,9,7.5,9.5c-0.3,2.7-3,2.6-4.6,3.7C38.6,114.9,35,111.9,34.1,107.9z"/>
		<path stroke="#000000" stroke-linecap="round" stroke-linejoin="round" stroke-miterlimit="10" d="M36.7,122.5l0.1-3.2
			c0.1-2.1-0.9-3.9-2-5.9c-0.9-1.6-1.8-3.2-2.2-5.1l-0.2-0.7l2.6-3.4l1.2,0.6c2.4,1.2,3.2,3.6,3.7,5.5c0.7,2.5,1.2,3.6,3.3,3.8
			l1.7,0.2l-0.2,1.6c-0.3,2.9-2.5,3.7-4,4.2c-0.5,0.2-1,0.4-1.3,0.6L36.7,122.5z M39.6,116c0.1,0.3,0.2,0.6,0.2,0.9
			c0.3-0.1,0.5-0.2,0.7-0.3C40.2,116.5,39.9,116.3,39.6,116z"/>
	</g>
	<g>
		<path stroke="#000000" stroke-linecap="round" stroke-linejoin="round" stroke-miterlimit="10" d="M28.5,90.5
			c-0.5,0.6-1,1.1-1.4,1.7c-2.7-2.8-3.3-6.5-4.4-10c0.5-0.6,1.1-1.2,1.6-1.9C25.7,83.7,27.1,87.1,28.5,90.5z"/>
		<path stroke="#000000" stroke-linecap="round" stroke-linejoin="round" stroke-miterlimit="10" d="M27.1,94.6l-1.2-1.3
			c-2.5-2.6-3.4-5.9-4.3-9c-0.2-0.6-0.3-1.1-0.5-1.7l-0.3-0.8l3.9-4.5l5.6,13.5L27.1,94.6z"/>
	</g>
</g>
</svg>
