<?xml version="1.0" encoding="utf-8"?>
<!-- Generator: Adobe Illustrator 26.3.1, SVG Export Plug-In . SVG Version: 6.00 Build 0)  -->
<svg version="1.1" id="Layer_1" xmlns="http://www.w3.org/2000/svg" xmlns:xlink="http://www.w3.org/1999/xlink" x="0px" y="0px"
	 viewBox="0 0 20 20" enable-background="new 0 0 20 20" xml:space="preserve">
<g>
	<path d="M18.1,9.2L18.1,9.2l0-0.1c-0.5-0.9-1-1-2.1-0.6c0,0-0.1,0-0.1,0c-0.5-0.3-1-0.1-1.4,0.2c-0.3,0.2-0.2,0.5-0.1,0.7
		c0,0,0,0.1,0,0.1c0,0.2,0.1,0.3,0.2,0.3c0,0,0.1,0,0.2,0c0.2-0.1,0.2-0.2,0.2-0.3c0,0,0,0,0.1,0c0.6,0,0.7,0.3,0.8,0.7
		c0,0.2,0.1,0.3,0.2,0.5c0,0.1,0.1,0.2-0.2,0.4c-0.4,0.3-0.8,0.4-1.2,0.2l-0.1,0.2c0.3,0.1,0.2,0.2,0.1,0.4l0,0.1
		c-0.1,0.2-0.2,0.4-0.2,0.7c-0.1,0.4,0,0.6,0.3,0.7c0.1,0,0.2,0.1,0.3,0.1c0.1,0,0.2,0,0.4-0.1c0.1-0.1,0.3-0.1,0.4-0.2
		c0.3-0.1,0.5-0.2,0.8-0.4c0,0,0.1-0.1,0.1-0.1c0.2-0.2,0.4-0.4,0.2-0.8l0,0c-0.1-0.2-0.2-0.4-0.1-0.6l0-0.1
		c0.1-0.3,0.1-0.4,0.3-0.4c0.1,0,0.2,0.1,0.2,0.1c0.1,0.1,0.1,0.2,0.1,0.4c0,0,0,0.1,0,0.1c0,0.1-0.1,0.3,0.1,0.6l0.1,0.2l0.1-0.2
		c0-0.1,0.1-0.2,0.1-0.3c0.1-0.2,0.2-0.3,0.2-0.5c0-0.1,0.1-0.2,0.1-0.3c0.1-0.1,0.1-0.3,0.2-0.4C18.4,10,18.5,9.5,18.1,9.2
		C18.1,9.2,18.1,9.2,18.1,9.2z"/>
	<path d="M7.8,9.2l0.2-0.3c0.2-0.3,0.3-0.4,0.5-0.4C9.1,8.6,9.6,8.8,10,9.1c-0.2,0-0.4,0.1-0.6,0.2C9.2,9.4,9,9.7,8.9,10
		c-0.1,0.2-0.1,0.4-0.3,0.4c-0.5,0.2-0.7,0.2-0.8,0.4c-0.1,0.2,0.1,0.4,0.4,0.8c0.2,0.3,0.2,0.4,0.1,0.5c-0.1,0.1-0.1,0.1-0.2,0.2
		c-0.1,0-0.2,0-0.3-0.1c-0.3-0.3-0.7-0.3-1,0c-0.3,0.3-0.3,0.6-0.1,1c0,0,0,0.1,0.1,0.1c0.1,0.1,0.1,0.2,0,0.3c0,0,0,0-0.2,0
		c-0.1,0-0.2-0.1-0.4,0l-0.1,0.1l0.1,0.1c0.2,0.3,0.4,0.5,0.6,0.5c0.1,0,0.2,0,0.3-0.1c0.2-0.1,0.3-0.2,0.3-0.4c0-0.2,0-0.3-0.1-0.5
		c-0.1-0.1-0.1-0.2-0.1-0.2c0,0,0-0.1,0.1-0.1c0,0,0.1-0.1,0.3,0.1c0,0.1,0.1,0.1,0.1,0.2c0.1,0.1,0.1,0.2,0.2,0.3
		c0.2,0.3,0.6,0.4,1,0.3c0.3-0.1,0.5-0.2,0.6-0.5c0.2-0.4,0.4-0.5,0.7-0.5l-0.1,0.2c-0.2,0.5-0.4,1-0.4,1.4l0,0c0,0.2,0,0.4,0.1,0.6
		c0.1,0.1,0.2,0.1,0.4,0.1c0,0,0,0,0,0c0.6,0,1.1,0,1.7,0c0.2,0,0.5,0,0.7,0h0.7l-0.7-0.2c-1.1-0.4-1.9-0.8-2.3-1.9L10.3,13
		c0.1,0,0.1,0,0.2,0l0.1,0c0,0,0.1,0,0.1,0.1c0.1,0.1,0.2,0.1,0.4,0.1c0.1,0,0.1-0.1,0.2-0.2c0.1-0.1,0.2-0.6-0.1-0.9
		c-0.1-0.1-0.1-0.1-0.2-0.2c-0.4-0.6-0.5-1.4-0.1-1.9c0,0,0.1,0.1,0.1,0.1c0.1,0.2,0.3,0.5,0.8,0.4c0.3-0.1,0.6,0.1,1,0.4
		c0.1,0.2,0,0.4-0.2,0.7c0,0.1-0.1,0.1-0.1,0.2c0,0.1-0.1,0.1-0.1,0.1c-0.6,0.5-0.2,1-0.1,1.2l0.1,0.1l0.1-0.1
		c0.4-0.3,0.7-0.7,0.9-1.2c0.1-0.1,0.1-0.3,0.1-0.5c0-0.2,0.1-0.5,0.2-0.5c0.1-0.1,0.4,0,0.6,0.1c0.2,0,0.3,0.1,0.5,0.1
		c0.3,0,0.5,0,0.7-0.2c0.1-0.1,0.2-0.3,0.2-0.5l0-0.4l-0.3,0.4c-0.3,0.4-0.6,0.3-1,0.1c-0.1,0-0.1-0.1-0.2-0.1c-1.6-0.5-3-1.3-4.4-2
		l0,0c-0.1,0-0.1-0.1-0.2-0.1C9.2,8.1,8.9,7.9,8.6,7.9C8.2,7.8,8,7.9,7.8,8.1C7.7,8.2,7.6,8.5,7.7,8.9L7.8,9.2z"/>
	<path d="M19.1,7.6L19.1,7.6c-0.5-1.3-1.3-2.4-2.5-3.2c-2.5-2.2-6.9-2.1-8.2-0.8L8.3,3.7l0.2,0.1c0.2,0,0.3,0,0.5-0.1
		c0,0,0.1,0,0.1-0.1c0.1,0,0.2,0,0.2-0.1c0.1,0,0.2-0.1,0.3-0.1c2.4-0.6,4.6-0.2,6.7,1.3c1.1,0.9,1.9,2,2.4,3.3
		c0.5,1.3,0.6,2.7,0.4,4.2c-0.3,1.5-1,2.8-2.2,4c-1.1,1-2.4,1.7-3.8,2c-0.9,0.1-1.9,0.2-2.8,0c-1.6-0.3-3-1.2-4.1-2L6,16.3
		c1.1,1.2,2.4,1.9,3.8,2.2c0.6,0.2,1.2,0.3,1.8,0.3c0.6,0,1.2-0.1,1.8-0.3c1.5-0.3,2.7-1,3.8-2.1c1.2-1.1,1.9-2.4,2.2-3.9
		C20,10.9,19.8,9.3,19.1,7.6z"/>
	<path d="M4.9,14.4c-0.1-0.5-0.1-0.9,0-1.4c0.7-0.7,1.1-1.6,1.4-2.7c0.1-0.1,0.1-0.2,0.1-0.3c0.1-0.2,0.1-0.2,0.2-0.3
		c0.2,0,0.3-0.1,0.3-0.3c0.1-0.1,0-0.3,0-0.5C6.8,8.7,6.5,8.6,6.2,8.7C6.1,8.8,6,8.9,5.9,9c0,0.1,0,0.3,0.1,0.4
		c0.1,0.2,0.1,0.3,0,0.4C6,10,6,10,6,10c-0.1,0.1-0.1,0.2-0.1,0.3c-0.1,0.3-0.2,0.5-0.6,0.5c-0.2,0-0.4,0.1-0.5,0.3
		c-0.1,0.2-0.1,0.4,0,0.5c0.3,0.3,0.1,0.6,0,0.9c0,0,0,0.1,0,0.1c0,0,0,0,0,0c0,0,0-0.1,0-0.1c0-0.1,0-0.2-0.1-0.3
		c-0.2-1-0.3-1.9-0.2-2.8c0.1-0.1,0.1-0.2,0.1-0.3c0,0,0-0.1,0-0.1c0-0.2,0.1-0.3,0.1-0.5c0.1-0.4,0.1-0.8,0.4-1.2
		c0,0.1,0.1,0.1,0.2,0.1c0.1,0,0.1,0,0.2,0c0.1,0,0.1,0,0.2,0c0.3-0.1,0.4-0.3,0.4-0.6c0-0.3-0.2-0.5-0.5-0.6l0,0c0,0-0.1,0-0.1,0
		c0,0,0,0,0,0C5.4,6.2,5.5,6,5.6,5.9c0.3-0.3,0.6-0.7,0.6-1.2c0.1-0.1,0.3-0.1,0.4-0.2c0.1,0,0.2-0.1,0.3-0.2C7,4.3,7.1,4.2,7.1,4
		c0-0.3-0.2-0.5-0.4-0.5C6.4,3.5,6.1,3.6,6,3.9C6,4,5.9,4.2,5.9,4.3c0,0.1,0,0.1,0,0.2C5.8,4.7,5.7,4.7,5.5,4.7c0,0-0.1,0-0.1,0
		C5.1,4.7,4.8,4.8,4.8,5c-0.1,0.2,0,0.4,0.1,0.5C5.1,5.7,5,5.8,5,6c0,0.1,0,0.1-0.1,0.2c0,0.1-0.1,0.1-0.1,0.1c0,0-0.1-0.1-0.1-0.1
		C4.7,6.1,4.6,6,4.5,6C4.4,5.9,4.1,5.8,3.9,6C3.7,6.1,3.6,6.3,3.6,6.5c0,0.2,0.1,0.4,0.5,0.4c0.1,0,0.2,0,0.3,0c0,0,0,0,0,0
		c0,0.1,0,0.2-0.1,0.3c0,0.1-0.1,0.1-0.1,0.2c0,0.1-0.1,0.2-0.1,0.3C4.1,8.1,4,8.4,4,8.8c0,0,0,0,0,0C3.8,8.7,3.6,8.6,3.5,8.7
		C3.4,8.7,3.3,8.8,3.3,9.1c0,0-0.1-0.1-0.1-0.2c0-0.1-0.1-0.3-0.2-0.4c0,0,0,0,0.1-0.1c0.1,0,0.1-0.1,0.2-0.1C3.6,8,3.6,7.7,3.4,7.4
		C3.3,7.3,3.2,7.2,3.1,7.2c-0.1,0-0.3,0-0.5,0.2c0,0-0.1,0.1-0.1,0.1c0,0,0,0,0-0.1c0-0.1,0-0.2-0.1-0.2L2.1,6.4L2.1,6.1
		C2,5.9,1.9,5.6,1.9,5.4c0-0.1-0.1-0.2,0-0.3c0,0,0,0,0.2,0c0.2,0,0.3,0,0.4-0.1c0.1-0.1,0.2-0.3,0.2-0.5c0-0.2-0.1-0.3-0.2-0.4
		C2.4,3.9,2.2,3.9,2,3.9c-0.1,0-0.2,0-0.2,0c0,0,0,0,0-0.2c0-0.1,0.1-0.2,0.1-0.3c0,0,0-0.1,0-0.1c0,0,0,0,0.1,0
		c0.1-0.1,0.2-0.1,0.3-0.1C2.4,3,2.7,2.9,2.6,2.5C2.5,2.3,2.3,2.2,2.1,2.2c-0.3,0-0.5,0.2-0.5,0.5c0,0.1,0,0.2,0,0.3l0,0.1
		C1.4,3.7,1.3,4.4,1.4,5.2c0,0,0,0.1,0,0.1c0,0,0,0.1,0,0.2c0,0,0,0-0.1,0C1.1,5.6,0.9,5.7,0.9,5.9C0.8,6,0.8,6.2,0.8,6.4
		c0.1,0.3,0.3,0.4,0.5,0.4c0.1,0,0.3,0,0.4-0.1c0,0,0,0,0,0c0,0,0,0,0,0c0,0,0,0.1,0,0.1C1.9,7,1.9,7.2,2.1,7.4c0,0,0,0,0,0
		c0,0-0.1,0-0.1,0c-0.1,0-0.1-0.1-0.2-0.1c-0.1,0-0.6,0-0.7,0.5C1.1,8.1,1.2,8.4,1.5,8.5c0.2,0.1,0.6,0.2,0.8,0
		c0.1-0.1,0.2-0.1,0.2-0.1c0,0,0.1,0.1,0.1,0.2l0,0c0,0.1,0.1,0.3,0.2,0.4C2.9,9.2,3,9.3,3,9.4c-0.1,0-0.2,0-0.3,0
		c-0.1,0-0.5,0-0.7,0.4c-0.1,0.4-0.1,0.6,0.1,0.8c0.3,0.2,0.6,0.1,0.8,0.1c0.2-0.1,0.4-0.3,0.5-0.5c0.3,0.8,0.6,1.5,0.8,2.4
		c0.3,1.5,0.4,3,0.3,4.8l0.3,0C4.9,16.7,5,15.9,5,15.1C5,14.9,5,14.6,4.9,14.4z"/>
	<path d="M13.3,8.9l0.2,0.4l0.1-0.5c0.1-0.7-0.1-1.2-0.7-1.6c-0.7-0.4-1.3-0.4-2.1,0.3l-0.5,0.4l0.6-0.2C12.4,7.3,12.6,7.4,13.3,8.9
		z"/>
	<path d="M6.5,11.2c0,0.3,0.2,0.5,0.6,0.5c0,0,0,0,0,0c0.4,0,0.6-0.3,0.6-0.7l0,0l0,0c0-0.4-0.2-0.6-0.6-0.6
		C6.8,10.5,6.5,10.8,6.5,11.2z"/>
	<path d="M6.5,3.4C6.5,3.4,6.5,3.4,6.5,3.4c0.3,0,0.5-0.2,0.6-0.5c0-0.2,0-0.3-0.1-0.3C6.9,2.5,6.8,2.4,6.6,2.4l0,0l0,0
		c-0.3,0-0.5,0.2-0.5,0.5c0,0.1,0,0.3,0.1,0.4C6.3,3.3,6.4,3.4,6.5,3.4z"/>
	<path d="M15.9,13.5c-0.2,0.1-0.5,0.2-0.7,0.3l-0.4,0.2l0.5,0c0.1,0,0.2,0,0.2,0c0.8,0,1.4-0.3,1.6-0.8l0.2-0.5L16.9,13
		C16.6,13.2,16.3,13.4,15.9,13.5z"/>
	<path d="M1.1,3.4L1.1,3.4L1.1,3.4C1.1,3.1,0.9,3,0.7,3C0.4,3,0.2,3.1,0.2,3.4c0,0.3,0.2,0.4,0.5,0.4c0,0,0,0,0,0
		C1,3.8,1.1,3.7,1.1,3.4z"/>
	<path d="M3,2.1C3,2.1,3,2.1,3,2.1c0.2,0,0.3-0.1,0.3-0.1c0.1-0.1,0.1-0.2,0.1-0.3c0-0.3-0.2-0.4-0.4-0.4c-0.2,0-0.4,0.2-0.4,0.5
		l0,0l0,0C2.6,2,2.8,2.1,3,2.1z"/>
</g>
</svg>
